<svg xmlns="http://www.w3.org/2000/svg" width="422.583" height="34.295" viewBox="0 0 422.583 34.295"><path fill="#003A57" d="M7.183 20.25h.162c1.095-1.193 5.8-5.994 6.732-7.087.903-1.063 1.61-1.87 1.61-2.416 0-.353-.127-.58-.45-.645-.29-.064-.42-.13-.42-.323 0-.226.163-.29.517-.29.677 0 2.448.096 3.32.096.997 0 2.77-.096 3.767-.096.322 0 .55.064.55.29 0 .226-.16.29-.483.29-.452 0-1.258.13-1.868.354-1.003.386-2.096 1.063-3.48 2.416-1 .968-5.865 5.8-6.96 6.958 1.16 1.516 7.474 8.312 8.73 9.505 1.418 1.353 2.867 2.804 4.607 3.48.965.388 1.61.482 1.997.482.227 0 .42.064.42.26 0 .224-.16.322-.775.322h-2.802c-.97 0-1.547 0-2.224-.067-1.74-.16-2.61-.87-3.994-2.094-1.418-1.254-7.764-8.697-8.44-9.63l-.355-.486h-.162v2.933c0 2.963 0 5.507.098 6.894.065.903.354 1.61 1.16 1.74.45.062 1.16.127 1.58.127.256 0 .418.098.418.26 0 .224-.26.322-.613.322-1.804 0-3.834-.1-4.638-.1-.742 0-2.772.1-4.06.1-.418 0-.644-.1-.644-.323 0-.16.13-.26.515-.26.484 0 .87-.063 1.16-.126.645-.13.806-.837.934-1.773.16-1.354.16-3.897.16-6.86v-5.67c0-4.898 0-5.8-.064-6.83-.062-1.097-.32-1.61-1.384-1.837-.26-.065-.806-.096-1.256-.096-.354 0-.548-.065-.548-.292 0-.225.226-.29.71-.29 1.705 0 3.735.097 4.51.097.77 0 2.8-.096 3.896-.096.452 0 .677.063.677.288 0 .227-.194.292-.45.292-.323 0-.516.03-.903.096-.87.16-1.128.71-1.193 1.836-.064 1.03-.064 1.932-.064 6.83v1.417zM44.228 23.826c.16 0 .193-.097.16-.195l-2.9-7.956c-.03-.127-.065-.29-.16-.29-.097 0-.162.163-.194.29L38.17 23.6c-.032.13 0 .227.13.227h5.928zm-6.573 1.61c-.16 0-.226.064-.29.257l-1.74 4.608c-.32.808-.483 1.58-.483 1.965 0 .58.29.998 1.288.998h.483c.387 0 .484.065.484.26 0 .257-.193.322-.546.322-1.03 0-2.415-.097-3.416-.097-.354 0-2.125.097-3.8.097-.418 0-.612-.065-.612-.322 0-.194.127-.26.385-.26.29 0 .742-.03 1-.062 1.48-.193 2.094-1.288 2.737-2.898L41.23 10.07c.386-.935.58-1.288.9-1.288.292 0 .485.288.808 1.03.773 1.772 5.925 14.915 7.988 19.812 1.224 2.9 2.16 3.35 2.836 3.512.484.096.965.127 1.353.127.257 0 .418.033.418.26 0 .257-.29.322-1.482.322-1.158 0-3.51 0-6.088-.065-.58-.03-.965-.03-.965-.257 0-.194.128-.26.45-.29.226-.063.45-.355.29-.74l-2.577-6.83c-.062-.163-.16-.227-.323-.227h-7.182zM63.49 18.833c0-4.898 0-5.8-.063-6.83-.066-1.096-.324-1.61-1.386-1.836-.257-.065-.805-.097-1.256-.097-.356 0-.547-.064-.547-.29 0-.226.226-.29.707-.29 1.71 0 3.74.096 4.704.096.774 0 2.804-.096 3.965-.096.48 0 .708.064.708.29 0 .226-.193.29-.514.29-.356 0-.548.032-.936.097-.87.16-1.127.71-1.192 1.835-.065 1.032-.065 1.933-.065 6.83v4.51c0 4.67.935 6.636 2.514 7.925 1.45 1.192 2.932 1.32 4.027 1.32 1.417 0 3.156-.45 4.445-1.74 1.77-1.77 1.867-4.67 1.867-7.988v-4.026c0-4.898 0-5.8-.064-6.83-.064-1.096-.323-1.61-1.386-1.836-.256-.065-.805-.097-1.16-.097-.354 0-.547-.063-.547-.29 0-.225.226-.29.677-.29 1.644 0 3.673.097 3.706.097.386 0 2.416-.096 3.672-.096.45 0 .676.065.676.29 0 .227-.19.29-.58.29-.353 0-.547.033-.933.098-.87.16-1.128.71-1.192 1.835-.064 1.032-.064 1.933-.064 6.83v3.448c0 3.574-.354 7.378-3.06 9.696-2.287 1.964-4.607 2.32-6.7 2.32-1.708 0-4.8-.096-7.15-2.224-1.646-1.48-2.87-3.866-2.87-8.537v-4.702zM103.466 24.502c0 3.092 0 5.51.16 6.86.096.938.29 1.644 1.257 1.774.45.062 1.16.127 1.61.127.42 0 .547.098.547.26 0 .224-.224.322-.71.322-2.028 0-4.056-.1-4.894-.1-.84 0-2.868.1-4.093.1-.45 0-.677-.067-.677-.323 0-.16.13-.26.485-.26.485 0 .87-.063 1.162-.126.642-.13.802-.837.932-1.773.162-1.353.162-3.77.162-6.86v-5.67c0-4.9 0-5.8-.064-6.83-.066-1.097-.322-1.61-1.386-1.837-.258-.065-.805-.096-1.257-.096-.322 0-.548-.064-.548-.26 0-.257.258-.32.742-.32 1.674 0 3.703.095 4.636.095 1.225 0 7.765 0 8.507-.032.612-.03.997-.03 1.32-.128.192-.064.355-.194.515-.194.13 0 .227.13.227.292 0 .225-.162.61-.26 1.45-.03.32-.096 2.222-.16 2.607-.033.26-.096.452-.324.452-.224 0-.287-.16-.322-.515 0-.26 0-.775-.193-1.225-.223-.452-.9-.935-2.125-.967l-4.96-.096c-.194 0-.29.095-.29.45v8.054c0 .193.033.29.225.29l4.124-.033c.548 0 .998 0 1.448-.032.614-.03 1.065-.16 1.387-.578.16-.193.223-.322.42-.322.126 0 .19.097.19.29 0 .192-.16 1-.257 1.997-.064.645-.13 2.128-.13 2.352 0 .29 0 .61-.32.61-.195 0-.26-.225-.26-.448 0-.23-.063-.614-.192-1-.16-.452-.644-1.032-1.644-1.16-.803-.096-4.22-.096-4.766-.096-.16 0-.224.062-.224.288v2.61zM128.2 9.618c.097-.548.29-.836.55-.836.256 0 .45.16.868.997l8.795 18.17 8.763-18.396c.225-.515.417-.772.708-.772.29 0 .485.32.58.997l2.932 19.91c.29 2.028.612 2.963 1.577 3.25.936.29 1.58.324 2 .324.288 0 .514.032.514.228 0 .256-.386.354-.838.354-.806 0-5.25-.1-6.54-.196-.74-.063-.934-.158-.934-.354 0-.16.128-.257.354-.355.194-.062.29-.48.162-1.384l-1.934-14.174h-.128l-7.024 14.626c-.74 1.515-.9 1.805-1.192 1.805s-.612-.644-1.127-1.612c-.774-1.48-3.32-6.41-3.706-7.31-.29-.677-2.22-4.738-3.348-7.154h-.13l-1.675 12.823c-.063.58-.096.996-.096 1.512 0 .613.418.903.967 1.03.58.13 1.03.162 1.353.162.258 0 .484.064.484.228 0 .287-.29.354-.773.354-1.353 0-2.803-.1-3.382-.1-.613 0-2.16.1-3.19.1-.32 0-.58-.067-.58-.354 0-.163.194-.228.516-.228.258 0 .483 0 .967-.095.903-.195 1.16-1.452 1.32-2.548l3.19-21.004zM175.72 23.826c.16 0 .192-.097.16-.195l-2.9-7.956c-.032-.127-.064-.29-.16-.29s-.163.163-.195.29l-2.963 7.925c-.03.13 0 .227.13.227h5.928zm-6.573 1.61c-.16 0-.226.064-.29.257l-1.74 4.608c-.322.808-.483 1.58-.483 1.965 0 .58.29.998 1.29.998h.482c.386 0 .482.065.482.26 0 .257-.193.322-.547.322-1.03 0-2.415-.097-3.414-.097-.355 0-2.126.097-3.802.097-.418 0-.61-.065-.61-.322 0-.194.128-.26.386-.26.29 0 .74-.03 1-.062 1.48-.193 2.092-1.288 2.738-2.898l8.084-20.23c.387-.936.58-1.29.903-1.29.288 0 .483.29.804 1.03.773 1.773 5.927 14.916 7.99 19.813 1.224 2.9 2.157 3.35 2.833 3.512.485.096.968.127 1.354.127.256 0 .418.033.418.26 0 .257-.29.322-1.48.322-1.16 0-3.513 0-6.09-.065-.58-.03-.966-.03-.966-.256 0-.194.128-.26.45-.29.226-.063.45-.355.29-.74l-2.578-6.83c-.064-.162-.162-.227-.322-.227h-7.183zM199.782 29.462c.067 2.515.483 3.353 1.13 3.577.546.19 1.157.224 1.672.224.357 0 .55.064.55.26 0 .255-.29.322-.742.322-2.095 0-3.382-.1-3.994-.1-.29 0-1.804.1-3.48.1-.418 0-.708-.033-.708-.323 0-.194.193-.26.515-.26.418 0 1-.03 1.45-.16.837-.256.966-1.19.998-3.993l.29-19.072c0-.646.096-1.096.42-1.096.353 0 .644.42 1.19 1 .387.42 5.285 5.67 9.987 10.34 2.192 2.192 6.54 6.83 7.088 7.347h.162l-.322-14.467c-.033-1.966-.323-2.578-1.095-2.9-.485-.192-1.26-.192-1.71-.192-.385 0-.514-.096-.514-.29 0-.257.354-.29.837-.29 1.674 0 3.22.097 3.897.097.355 0 1.58-.096 3.16-.096.417 0 .74.033.74.29 0 .194-.195.29-.58.29-.324 0-.58 0-.966.097-.903.257-1.162.934-1.193 2.738l-.355 20.327c0 .71-.13 1-.418 1-.356 0-.74-.354-1.096-.71-2.03-1.933-6.153-6.152-9.505-9.47-3.51-3.48-7.085-7.508-7.664-8.12h-.098l.354 13.53zM286.522 21.957c-.678-.483-1.417-.71-2.675-.774-.578-.03-.902-.03-1.385-.03-.13 0-.193.064-.193.225v7.636c0 2.126.095 2.672 1.125 3.093.872.354 1.614.387 2.353.387 1.45 0 3.897-.774 3.897-4.124 0-2-.677-4.705-3.123-6.413m-4.253-2.577c0 .257.095.323.227.354.285.063.772.096 1.513.096 1.062 0 1.77-.126 2.318-.61.836-.677 1.32-1.837 1.32-3.415 0-2.158-1.256-4.994-4.026-4.994-.45 0-.74 0-1.062.067-.228.064-.29.193-.29.547v7.956zm-3.865-.547c0-4.898 0-5.8-.063-6.83-.068-1.096-.325-1.61-1.385-1.836-.26-.065-.81-.097-1.258-.097-.357 0-.553-.064-.553-.29 0-.226.228-.29.71-.29 1.708 0 3.74.096 4.383.096 1.58 0 2.835-.096 3.93-.096 5.83 0 6.86 3.125 6.86 4.833 0 2.64-1.513 4.22-3.283 5.636 2.637.9 5.863 3.188 5.863 6.96 0 3.444-2.675 7.02-8.6 7.02-.775 0-3.708-.19-4.675-.19-.74 0-2.77.096-4.057.096-.42 0-.644-.097-.644-.323 0-.16.126-.26.514-.26.485 0 .87-.06 1.16-.126.642-.13.806-.837.933-1.772.165-1.354.165-3.897.165-6.86v-5.672zM309.487 21.377c0 .354.063.483.29.58.673.225 1.64.323 2.45.323 1.284 0 1.703-.13 2.282-.55.967-.708 1.903-2.19 1.903-4.83 0-4.576-3.03-5.898-4.933-5.898-.803 0-1.383.034-1.704.128-.226.065-.29.195-.29.453v9.794zm-3.802-2.544c0-4.898 0-5.8-.065-6.83-.068-1.096-.322-1.61-1.388-1.836-.254-.065-.806-.097-1.254-.097-.353 0-.55-.064-.55-.29 0-.226.23-.29.71-.29 1.707 0 3.736.096 4.413.096 1.096 0 3.544-.096 4.543-.096 2.03 0 4.188.193 5.927 1.386.902.61 2.193 2.255 2.193 4.412 0 2.385-.998 4.576-4.255 7.218 2.87 3.607 5.09 6.473 6.994 8.47 1.804 1.87 3.125 2.096 3.605 2.193.355.06.646.093.908.093.254 0 .382.1.382.26 0 .257-.227.322-.61.322h-3.063c-1.803 0-2.607-.16-3.447-.614-1.387-.737-2.607-2.253-4.414-4.732-1.287-1.773-2.77-3.962-3.188-4.446-.16-.192-.355-.225-.58-.225l-2.804-.065c-.16 0-.253.065-.253.258v.45c0 2.997 0 5.54.158 6.895.096.936.292 1.643 1.26 1.772.48.064 1.188.127 1.575.127.26 0 .387.1.387.26 0 .226-.224.322-.64.322-1.873 0-4.257-.097-4.738-.097-.616 0-2.645.096-3.93.096-.422 0-.645-.097-.645-.323 0-.16.126-.26.51-.26.488 0 .873-.06 1.166-.126.64-.13.804-.837.932-1.772.163-1.354.163-3.897.163-6.86v-5.672zM354.1 22.28c0-7.218-4.156-11.695-9.435-11.695-3.707 0-7.927 2.062-7.927 10.083 0 6.7 3.703 12.016 9.89 12.016 2.255 0 7.472-1.094 7.472-10.404m-21.807-.614c0-5.508 3.637-12.628 13.302-12.628 8.02 0 13.017 4.67 13.017 12.05 0 7.376-5.155 13.207-13.34 13.207-9.243 0-12.98-6.926-12.98-12.63M379.32 23.826c.158 0 .19-.097.158-.195l-2.898-7.956c-.032-.127-.062-.29-.16-.29s-.16.163-.194.29L373.26 23.6c-.03.13 0 .227.133.227h5.927zm-6.57 1.61c-.167 0-.23.064-.294.257l-1.74 4.608c-.322.808-.48 1.58-.48 1.965 0 .58.286.998 1.286.998h.484c.388 0 .482.065.482.26 0 .257-.19.322-.545.322-1.03 0-2.416-.097-3.416-.097-.354 0-2.128.097-3.8.097-.423 0-.613-.065-.613-.322 0-.194.127-.26.386-.26.29 0 .74-.03 1-.062 1.478-.193 2.093-1.288 2.738-2.898l8.084-20.23c.387-.936.58-1.29.902-1.29.29 0 .482.29.805 1.03.772 1.773 5.927 14.916 7.99 19.813 1.224 2.9 2.16 3.35 2.833 3.512.485.096.965.127 1.353.127.258 0 .42.033.42.26 0 .257-.288.322-1.483.322-1.157 0-3.51 0-6.088-.065-.58-.03-.964-.03-.964-.256 0-.194.126-.26.45-.29.227-.063.45-.355.29-.74l-2.576-6.83c-.068-.162-.163-.227-.322-.227h-7.183zM403.513 22.376c0 3.415.03 5.894.062 6.507.03.807.095 2.094.354 2.45.417.61 1.678 1.288 4.22 1.288 3.287 0 5.478-.645 7.41-2.32 2.063-1.77 2.707-4.702 2.707-8.02 0-4.093-1.707-6.733-3.09-8.055-2.967-2.833-6.642-3.222-9.152-3.222-.646 0-1.837.098-2.096.227-.29.127-.387.29-.387.643-.03 1.096-.03 3.9-.03 6.445v4.058zm-4.03-3.543c0-4.898 0-5.8-.064-6.83-.063-1.096-.32-1.61-1.386-1.836-.258-.065-.804-.097-1.258-.097-.354 0-.546-.064-.546-.29 0-.226.227-.29.71-.29 1.708 0 3.737.096 4.637.096 1 0 3.03-.096 4.964-.096 4.023 0 9.407 0 12.916 3.672 1.613 1.676 3.127 4.35 3.127 8.182 0 4.06-1.71 7.153-3.51 8.99-1.482 1.513-4.832 3.8-10.793 3.8-2.35 0-5.254-.386-6.862-.386-.74 0-2.77.097-4.06.097-.42 0-.645-.097-.645-.323 0-.16.13-.26.517-.26.48 0 .866-.06 1.16-.126.642-.13.802-.837.935-1.772.158-1.354.158-3.897.158-6.86v-5.67zM263.563 31.817V33.8c-6.54-.823-24.918-.82-31.06.054v-2.036.128-2.038c6.202.885 24.472.885 31.06.053v1.986-.13zM239.716 21.58c1.52-3.04 6.763-12.356 7.61-13.536.48-.67.744-.913 1.375 0 .244.357 7.552 12.85 7.778 13.592.232.742.51 1.03-.397 1.2-2.244.415-12.965.29-15.963-.057-.742-.087-.743-.515-.4-1.2m8.59 4.848c5-.006 9.984.055 15.453.205-.748-1.742-4.74-7.954-8.282-13.995C251.942 6.598 248.868.73 248.15 0h-.082c-.715.73-3.792 6.6-7.327 12.638-3.536 6.04-7.53 12.252-8.28 13.995 5.47-.15 10.45-.21 15.457-.205h.39z"/></svg>