<svg xmlns="http://www.w3.org/2000/svg" width="476.223" height="476.223" viewBox="0 0 476.223 476.223"><path fill-rule="evenodd" clip-rule="evenodd" d="M476.195 231.68c-.096-8.743-3.244-17.453-9.46-24.126L295.176 23.68c-12.656-13.556-33.128-13.556-45.784 0l-11.444 12.25c-12.61 13.556-12.61 35.486 0 49.04l96.374 103.29H39.677c-22.193 0-40.184 18.488-40.184 41.255v5.21c0 22.8 17.99 41.256 40.184 41.256H337.56L235.605 385.258c-12.794 13.71-12.794 35.89 0 49.6l11.554 12.376c12.78 13.71 33.5 13.71 46.28 0L466.92 261.278c7.537-8.066 10.625-19.094 9.275-29.6z"/></svg>