<svg xmlns="http://www.w3.org/2000/svg" viewBox="0 0 549 115"><g fill="#626262"><path d="M27.7 39.1h.4c2.4-2.7 13-13.4 15.1-15.8 2-2.4 3.6-4.2 3.6-5.4 0-.8-.3-1.3-1-1.4-.6-.1-.9-.3-.9-.7 0-.5.4-.6 1.2-.6 1.5 0 5.5.2 7.4.2 2.2 0 6.2-.2 8.4-.2.7 0 1.2.1 1.2.6s-.4.6-1.1.6c-1 0-2.8.3-4.2.8-2.2.9-4.7 2.4-7.8 5.4-2.2 2.2-13.1 13-15.6 15.6 2.6 3.4 16.7 18.6 19.5 21.2 3.2 3 6.4 6.3 10.3 7.8 2.2.9 3.6 1.1 4.5 1.1.5 0 .9.1.9.6s-.4.7-1.7.7h-6.3c-2.2 0-3.5 0-5-.1-3.9-.4-5.8-1.9-8.9-4.7-3.2-2.8-17.4-19.4-18.9-21.5l-.8-1.1h-.4v6.6c0 6.6 0 12.3.2 15.4.1 2 .8 3.6 2.6 3.9 1 .1 2.6.3 3.5.3.6 0 .9.2.9.6 0 .5-.6.7-1.4.7-4 0-8.6-.2-10.4-.2-1.7 0-6.2.2-9.1.2-.9 0-1.4-.2-1.4-.7 0-.4.3-.6 1.2-.6 1.1 0 1.9-.1 2.6-.3 1.4-.3 1.8-1.9 2.1-4 .4-3 .4-8.7.4-15.3V36c0-10.9 0-13-.1-15.3-.1-2.4-.7-3.6-3.1-4.1-.6-.1-1.8-.2-2.8-.2-.8 0-1.2-.1-1.2-.6s.5-.6 1.6-.6c3.8 0 8.4.2 10.1.2s6.3-.2 8.7-.2c1 0 1.5.1 1.5.6s-.4.6-1 .6c-.7 0-1.2.1-2 .2-1.9.4-2.5 1.6-2.7 4.1-.1 2.3-.1 4.3-.1 15.3v3.1z"/><path d="M75.5 37.5c-3-4-3.6-7-3.7-10.2-.1-5.7 5-13.2 17.5-13.2 3.5 0 6.8.7 8.7 1.5 1.2.4 1.2 1 1.2 1.9 0 2.4-.6 8.1-.8 9.2-.1 1.1-.4 1.2-.9 1.2s-.5-.3-.5-1.4c0-1.9-.5-4.2-2.1-6-1.4-1.7-4-3.2-8-3.2-3 0-7.7 2.1-7.7 8.2 0 6.8 6.2 12.5 12 18.9 2.4 2.8 11.3 10.8 12.7 12 1.4-2 3.5-6.7 3.5-11.1 0-1.1-.3-2.4-1.4-3.3-.9-.9-2.4-1.1-3.5-1.1-.4 0-.9-.1-.9-.6 0-.6.6-.7 1.2-.7 1.7 0 4.6.1 8.6.5 1.4.1 2.4.6 2.4 1.4 0 5.5-3 12.2-7.1 17.1 4.8 4 8.1 5.9 10 7.1 2.3 1.4 6.3 2.5 7.7 2.5.6 0 1 .1 1 .6 0 .4-.6.6-2.2.6h-5.5c-8.2 0-10.8-.8-17-5.5-2.4 2.2-7.2 6.6-17.1 6.6-15.4 0-20-9.6-20-15.9.1-8.4 7.5-15 11.9-17.1zM98 61.7c-4.2-3.6-11.1-10.4-13-12.4s-6.5-7.2-7.7-9c-2.4 1.8-5 5.2-5 10.9 0 9 6.3 14.8 13.8 14.8 5.6 0 10.4-2.9 11.9-4.3z"/><path d="M128.3 36c0-10.9 0-13-.1-15.3-.1-2.4-.7-3.6-3.1-4.1-.6-.1-1.8-.2-2.8-.2-.8 0-1.2-.1-1.2-.6s.5-.6 1.6-.6c3.8 0 8.4.2 9.8.2 3.5 0 6.3-.2 8.8-.2 13 0 15.3 7 15.3 10.8 0 5.9-3.4 9.4-7.3 12.6 5.9 2 13.1 7.1 13.1 15.6 0 7.7-6 15.7-19.2 15.7-.9 0-3-.1-5-.2-2.2-.1-4.3-.2-5.4-.2-.8 0-2.4 0-4.1.1-1.7 0-3.5.1-5 .1-.9 0-1.4-.2-1.4-.7 0-.4.3-.6 1.2-.6 1.1 0 1.9-.1 2.6-.3 1.4-.3 1.8-1.9 2.1-4 .4-3 .4-8.7.4-15.3V36zm8.6 1.2c0 .6.2.7.5.8.6.1 1.7.2 3.4.2 2.4 0 4-.3 5.2-1.4 1.9-1.5 3-4.1 3-7.6 0-4.8-2.8-11.2-9-11.2-1 0-1.7 0-2.4.1-.5.1-.6.4-.6 1.2v17.9zm9.5 5.7c-1.5-1.1-3.2-1.6-6-1.7-1.3-.1-2-.1-3.1-.1-.3 0-.4.1-.4.5v17.1c0 4.8.2 6 2.5 6.9 1.9.8 3.6.9 5.3.9 3.2 0 8.7-1.7 8.7-9.2 0-4.5-1.5-10.5-7-14.4zM181.3 47.5c0-7.1 0-8.5-.1-10-.1-1.6-.5-2.3-2-2.7-.4-.1-1.2-.1-1.8-.1-.5 0-.8-.1-.8-.4s.3-.4 1-.4c2.5 0 5.5.1 6.8.1 1.9 0 4.7-.1 6.8-.1 5.9 0 8 2 8.7 2.7 1 1 2.4 3.1 2.4 5.6 0 6.7-4.9 11.4-11.6 11.4h-1c-.2 0-.6-.1-.6-.4 0-.4.3-.5 1.3-.5 2.6 0 6.3-3 6.3-7.8 0-1.6-.1-4.7-2.8-7-1.7-1.6-3.6-1.8-4.7-1.8-.7 0-1.4 0-1.8.2-.2.1-.4.4-.4.9V56c0 4.3 0 8 .2 10.1.1 1.3.4 2.3 1.8 2.5.7.1 1.7.2 2.4.2.5 0 .8.1.8.4 0 .3-.4.5-.9.5-3.1 0-6.1-.1-7.3-.1-1.1 0-4 .1-5.9.1-.6 0-.9-.1-.9-.5 0-.2.2-.4.8-.4.7 0 1.3-.1 1.7-.2.9-.2 1.2-1.2 1.4-2.6.2-2 .2-5.7.2-10v-8.5zM216.7 59.3c-.2 0-.3 0-.4.3l-2.2 5.4c-.4 1-.6 2-.6 2.4 0 .7.4 1.1 1.6 1.1h.6c.5 0 .6.2.6.4 0 .3-.2.4-.7.4-1.4 0-3.3-.1-4.6-.1-.4 0-2.6.1-4.8.1-.5 0-.8-.1-.8-.4 0-.2.1-.4.5-.4h1.2c1.9-.3 2.6-1.5 3.4-3.5l10.8-25c.5-1.1.8-1.6 1.2-1.6.6 0 .8.4 1.2 1.3 1 2.2 7.9 18.4 10.5 24.4 1.6 3.6 2.8 4.1 3.5 4.3.6.1 1.1.1 1.6.1.4 0 .6.1.6.4 0 .3-.2.4-1.8.4-1.5 0-4.5 0-7.9-.1-.8 0-1.2 0-1.2-.3 0-.2.1-.4.5-.4.3 0 .6-.4.4-.9l-3.2-8.1c-.1-.2-.2-.3-.4-.3h-9.6zm8.8-2.2c.2 0 .2-.1.2-.2l-3.9-10c0-.1-.1-.4-.2-.4s-.2.2-.2.4l-4 10c-.1.2 0 .3.1.3h8zM254.1 41.7l-6.2.1c-2.4 0-3.4.3-4 1.2-.4.6-.6 1.1-.7 1.4-.1.3-.2.5-.5.5s-.4-.2-.4-.7c0-.7.8-4.5.9-4.8.1-.5.2-.8.5-.8s.8.3 1.8.5c1.2.1 2.8.2 4.1.2h16.8c1.3 0 2.2-.1 2.8-.2.7-.1 1-.2 1.1-.2.3 0 .3.2.3.8 0 .8-.1 3.8-.1 4.8 0 .4-.1.7-.4.7-.3 0-.4-.2-.5-.8V44c-.1-1-1.2-2.3-4.9-2.3l-5.2-.1v16.2c0 3.7 0 6.8.2 8.6.1 1.1.4 1.9 1.6 2.1.6.1 1.5.1 2.1.1.5 0 .7.2.7.4 0 .3-.3.4-.8.4-2.7 0-5.5-.1-6.7-.1-.9 0-3.8.1-5.4.1-.5 0-.8-.1-.8-.4 0-.2.1-.4.7-.4s1.1 0 1.5-.1c.8-.2 1.1-.9 1.2-2.1.2-1.7.2-4.8.2-8.5V41.7zM285.4 50.8v-8.5c-.1-1.4-.5-1.8-1.8-2.2-.3-.1-1-.1-1.6-.1-.4 0-.7-.1-.7-.4s.3-.4.9-.4c2.2 0 4.8.1 5.6.1 1.4 0 5.2-.1 6.4-.1 2.6 0 5.6.2 7.9 1.7 1.2.8 2.9 2.8 2.9 5.5 0 3-1.7 5.6-5.7 8.8 3.7 4.5 6.6 8.1 9.1 10.6 2.3 2.3 3.8 2.5 4.4 2.6.4.1.7.1 1 .1s.5.2.5.4c0 .3-.3.4-.8.4h-3.9c-2.3 0-3.4-.2-4.5-.8-1.8-.9-3.3-2.8-5.6-5.9-1.6-2.2-3.4-4.8-3.9-5.5-.2-.2-.5-.3-.8-.3l-3.7-.1c-.2 0-.3.1-.3.3v.6c0 3.7 0 6.8.2 8.5.1 1.2.3 1.9 1.6 2.1.6.1 1.5.1 2 .1.3 0 .5.2.5.4 0 .3-.3.4-.8.4-2.4 0-5.8-.1-6.4-.1-.8 0-3.4.1-5.1.1-.5 0-.8-.1-.8-.4 0-.2.1-.4.7-.4s1.1 0 1.5-.1c.8-.2 1.1-.9 1.2-2.1.2-1.7.2-4.8.2-8.5v-6.8zm5.3 3.1c0 .4.1.6.4.7.9.3 2.1.4 3.2.4 1.6 0 2.2-.1 2.9-.7 1.3-.9 2.7-2.6 2.7-5.9 0-5.6-3.9-7.1-6.3-7.1-1 0-2 0-2.4.1-.3.1-.4.2-.4.6v11.9zM324.7 50.8v-8.5c-.1-1.4-.5-1.8-1.4-2.1-.5-.1-1-.2-1.5-.2-.4 0-.7-.1-.7-.5 0-.2.3-.3 1-.3 1.6 0 4.4.1 5.5.1 1 0 3.7-.1 5.3-.1.5 0 .8.1.8.3 0 .4-.2.5-.7.5-.4 0-.8 0-1.2.1-1.1.2-1.5.8-1.6 2.2-.1 1.3-.1 2.4-.1 8.5v7c0 3.9 0 7 .2 8.7.1 1.1.4 1.7 1.6 1.9.6.1 1.5.1 2.1.1.5 0 .7.2.7.4 0 .3-.3.4-.8.4-2.7 0-5.5-.1-6.7-.1-.9 0-3.8.1-5.4.1-.5 0-.8-.1-.8-.4 0-.2.1-.4.7-.4s1.1 0 1.5-.1c.8-.2 1.1-.8 1.2-1.9.2-1.6.2-4.8.2-8.7v-7zM352.5 39.6c.1-.7.5-1 .8-1 .4 0 .7.2 1.3 1.3L365.7 62l11.1-22.4c.3-.7.7-1 1.1-1 .3 0 .8.4.9 1.3l3.8 24.6c.4 2.5.8 3.6 2 3.9 1.2.3 1.8.4 2.4.4.4 0 .7.1.7.4 0 .3-.5.5-1.1.5-1 0-6.9-.1-8.6-.2-1 0-1.2-.2-1.2-.5 0-.2.2-.3.5-.4.2-.1.3-.6.2-1.7L375 49.5h-.1L366 67.1c-.9 1.9-1.2 2.3-1.6 2.3-.5 0-1-.8-1.6-2-1-1.8-4.3-7.9-4.7-9.1-.3-.8-2.8-5.6-4.1-8.4h-.1l-2 15.4c-.1.7-.1 1.2-.1 1.9 0 .8.6 1 1.3 1.2.7.1 1.1.2 1.5.2s.7.2.7.4c0 .4-.4.5-1 .5-1.7 0-3.6-.1-4.4-.1-.8 0-2.8.1-4.1.1-.4 0-.8-.1-.8-.5 0-.2.2-.4.7-.4.3 0 .6 0 1.3-.1 1.1-.1 1.5-1.7 1.7-3.1l3.8-25.8zM396.6 54.3c0-6.8 4.8-15.6 17.3-15.6 10.4 0 16.9 5.8 16.9 14.9 0 9.2-6.7 16.4-17.3 16.4-12 0-16.9-8.6-16.9-15.7zm28.1.8c0-8.8-5.3-14.3-12-14.3-4.6 0-10 2.4-10 12.3 0 8.2 4.7 14.7 12.5 14.7 2.9 0 9.5-1.4 9.5-12.7zM445.7 50.8v-8.5c-.1-1.4-.5-1.8-1.4-2.1-.5-.1-1-.2-1.5-.2-.4 0-.7-.1-.7-.5 0-.2.3-.3 1-.3 1.6 0 4.4.1 5.5.1 1 0 3.7-.1 5.3-.1.5 0 .8.1.8.3 0 .4-.2.5-.7.5-.4 0-.8 0-1.2.1-1.1.2-1.5.8-1.6 2.2-.1 1.3-.1 2.4-.1 8.5v7c0 3.9 0 7 .2 8.7.1 1.1.4 1.7 1.6 1.9.6.1 1.5.1 2.1.1.5 0 .7.2.7.4 0 .3-.3.4-.8.4-2.7 0-5.5-.1-6.7-.1-.9 0-3.8.1-5.4.1-.5 0-.8-.1-.8-.4 0-.2.1-.4.7-.4s1.1 0 1.5-.1c.8-.2 1.1-.8 1.2-1.9.2-1.6.2-4.8.2-8.7v-7zM474.4 64c.1 3.1.6 4 1.4 4.3.7.2 1.5.3 2.2.3.5 0 .7.2.7.4 0 .3-.4.4-.9.4-2.7 0-4.6-.1-5.4-.1-.4 0-2.4.1-4.5.1-.6 0-.9 0-.9-.4 0-.2.3-.4.7-.4.6 0 1.3 0 1.9-.2 1.1-.3 1.2-1.4 1.3-4.8l.4-23.7c0-.8.3-1.4.7-1.4.5 0 1.1.6 1.8 1.3.5.5 6.7 6.9 12.7 12.7 2.8 2.8 8.3 8.4 8.9 9h.2l-.4-17.8c0-2.4-.4-3.1-1.4-3.5-.6-.2-1.6-.2-2.2-.2-.5 0-.7-.2-.7-.4 0-.3.4-.4 1-.4 2.2 0 4.4.1 5.3.1.5 0 2-.1 4-.1.6 0 .9 0 .9.4 0 .2-.2.4-.7.4-.4 0-.8 0-1.3.1-1.1.3-1.5 1-1.5 3.3l-.5 25.2c0 .9-.3 1.3-.7 1.3-.7 0-1.3-.4-1.7-.8-2.6-2.4-7.8-7.3-12.1-11.5-4.5-4.3-8.9-9.2-9.7-9.9h.1l.4 16.3zM518.4 50.8v-8.5c-.1-1.4-.5-1.8-1.8-2.2-.3-.1-1-.1-1.6-.1-.4 0-.7-.1-.7-.4s.3-.4.9-.4c2.2 0 4.8.1 6 .1h11.3c.8 0 1.4-.2 1.7-.2.2 0 .5-.2.7-.2.2 0 .3.2.3.4 0 .3-.2.8-.3 2.6 0 .4-.1 2.2-.2 2.6 0 .2-.1.7-.5.7-.3 0-.3-.2-.3-.5s0-1-.3-1.5c-.3-.7-.7-1.3-2.7-1.5-.7-.1-5.6-.2-6.5-.2-.2 0-.3.1-.3.4v9.9c0 .2 0 .4.3.4.9 0 6.3 0 7.2-.1 1-.1 1.6-.2 2-.6.3-.3.5-.5.7-.5.2 0 .3.2.3.4s-.1.9-.3 2.9c-.1.8-.2 2.4-.2 2.7 0 .3 0 .9-.4.9-.3 0-.4-.1-.4-.3 0-.4 0-.9-.1-1.5-.2-.8-.8-1.4-2.3-1.6-.8-.1-5.5-.2-6.5-.2-.2 0-.2.2-.2.4v9.2c.1 2.7 1.4 3.3 5.6 3.3 1.1 0 2.8 0 3.9-.5 1-.5 1.5-1.3 1.8-3 .1-.4.2-.6.5-.6s.4.5.4.9c0 .9-.3 3.6-.6 4.4-.3 1-.7 1-2.2 1-3.1 0-5.6 0-7.6-.1-2 0-3.6-.1-4.8-.1h-2.4c-1 0-2 .1-2.9.1-.5 0-.8-.1-.8-.4 0-.2.1-.4.7-.4s1.1 0 1.5-.1c.8-.2 1.1-.9 1.2-2.1.2-1.7.2-4.8.2-8.5v-7z"/></g><g fill="#626262"><path d="M13.3 81.4h2.6v15.4h8.6v1.9H13.3V81.4zM28.4 92.9c.1 3.1 2.3 4.3 5 4.3 1.9 0 3-.3 4-.6l.4 1.6c-.9.3-2.5.8-4.8.8-4.5 0-7.1-2.5-7.1-6.3s2.6-6.7 6.8-6.7c4.7 0 6 3.6 6 5.9 0 .5-.1.8-.1 1.1H28.4zm7.7-1.6c0-1.4-.7-3.7-3.7-3.7-2.7 0-3.8 2.1-4 3.7h7.7zM48 96.4c.8.4 2.2.9 3.5.9 1.9 0 2.8-.8 2.8-1.9 0-1.1-.8-1.7-2.7-2.3-2.6-.8-3.8-2-3.8-3.5 0-2 1.9-3.6 5-3.6 1.5 0 2.8.4 3.6.8l-.7 1.6c-.6-.3-1.6-.7-3-.7-1.6 0-2.4.8-2.4 1.7 0 1 .9 1.5 2.8 2.1 2.5.8 3.8 1.9 3.8 3.8 0 2.2-2 3.7-5.4 3.7-1.6 0-3.1-.3-4.1-.8l.6-1.8zM63.1 82.8c0 .8-.6 1.4-1.7 1.4-.9 0-1.6-.6-1.6-1.4 0-.8.7-1.4 1.6-1.4 1.1 0 1.7.6 1.7 1.4zm-2.9 15.9V86.3h2.6v12.4h-2.6zM70.4 82.7v3.6h3.8V88h-3.8v6.7c0 1.5.5 2.4 2 2.4.7 0 1.2-.1 1.5-.2l.1 1.7c-.5.2-1.3.3-2.3.3-1.2 0-2.2-.3-2.8-1-.8-.7-1-1.8-1-3.2V88h-2.2v-1.7h2.2v-3l2.5-.6zM78.4 92.9c.1 3.1 2.3 4.3 5 4.3 1.9 0 3-.3 4-.6l.4 1.6c-.8.3-2.4.8-4.7.8-4.5 0-7.1-2.5-7.1-6.3s2.6-6.7 6.8-6.7c4.7 0 6 3.6 6 5.9 0 .5-.1.8-.1 1.1H78.4zm7.8-1.6c0-1.4-.7-3.7-3.7-3.7-2.7 0-3.8 2.1-4 3.7h7.7zM110.9 80.5v15c0 1.1 0 2.4.1 3.2h-2.4l-.1-2.2h-.1c-.8 1.4-2.6 2.4-4.9 2.4-3.5 0-6.2-2.5-6.2-6.3 0-4.1 3-6.7 6.5-6.7 2.2 0 3.7.9 4.4 1.9h.1v-7.4h2.6zm-2.6 10.8c0-.3 0-.7-.1-1-.4-1.4-1.8-2.6-3.8-2.6-2.7 0-4.3 2.1-4.3 4.8 0 2.5 1.4 4.6 4.3 4.6 1.8 0 3.4-1 3.9-2.7.1-.3.1-.6.1-1v-2.1zM116.7 92.9c.1 3.1 2.3 4.3 5 4.3 1.9 0 3-.3 4-.6l.4 1.6c-.9.4-2.5.8-4.8.8-4.5 0-7.1-2.5-7.1-6.3s2.6-6.7 6.8-6.7c4.7 0 6 3.6 6 5.9 0 .5-.1.8-.1 1.1h-10.2zm7.8-1.6c0-1.4-.7-3.7-3.7-3.7-2.7 0-3.8 2.1-4 3.7h7.7zM129.9 96.4c.8.4 2.2.9 3.5.9 1.9 0 2.8-.8 2.8-1.9 0-1.1-.8-1.7-2.7-2.3-2.6-.8-3.8-2-3.8-3.5 0-2 1.9-3.6 5-3.6 1.5 0 2.8.4 3.6.8l-.7 1.6c-.6-.3-1.6-.7-3-.7-1.6 0-2.4.8-2.4 1.7 0 1 .9 1.5 2.8 2.1 2.5.8 3.8 1.9 3.8 3.8 0 2.2-2 3.7-5.4 3.7-1.6 0-3.1-.3-4.1-.8l.6-1.8zM148.5 90.3c0-1.6-.1-2.9-.1-4.1h2.4l.1 2.1h.1c1.1-1.5 2.8-2.4 5.2-2.4 3.5 0 6.1 2.5 6.1 6.3 0 4.5-3.2 6.7-6.6 6.7-1.9 0-3.6-.7-4.5-2h-.1v6.8h-2.6V90.3zm2.7 3.3c0 .3.1.6.1.9.5 1.6 2.1 2.6 4 2.6 2.8 0 4.4-2 4.4-4.8 0-2.5-1.5-4.6-4.3-4.6-1.8 0-3.5 1.1-4 2.8-.1.3-.2.6-.2.9v2.2zM165.6 90.1c0-1.5 0-2.7-.1-3.9h2.3l.1 2.4h.1c.7-1.7 2.2-2.7 4-2.7.3 0 .5 0 .7.1v2.1c-.3-.1-.5-.1-.9-.1-1.9 0-3.2 1.2-3.5 2.9-.1.3-.1.7-.1 1.1v6.6h-2.6v-8.5zM176.6 92.9c.1 3.1 2.3 4.3 5 4.3 1.9 0 3-.3 4-.6l.4 1.6c-.9.4-2.5.8-4.8.8-4.5 0-7.1-2.5-7.1-6.3s2.6-6.7 6.8-6.7c4.7 0 6 3.6 6 5.9 0 .5-.1.8-.1 1.1h-10.2zm7.7-1.6c0-1.4-.7-3.7-3.7-3.7-2.7 0-3.8 2.1-4 3.7h7.7zM189.8 96.4c.8.4 2.2.9 3.5.9 1.9 0 2.8-.8 2.8-1.9 0-1.1-.8-1.7-2.7-2.3-2.6-.8-3.8-2-3.8-3.5 0-2 1.9-3.6 5-3.6 1.5 0 2.8.4 3.6.8l-.7 1.6c-.6-.3-1.6-.7-3-.7-1.6 0-2.4.8-2.4 1.7 0 1 .9 1.5 2.8 2.1 2.5.8 3.8 1.9 3.8 3.8 0 2.2-2 3.7-5.4 3.7-1.6 0-3.1-.3-4.1-.8l.6-1.8zM212.4 98.2c-.7.3-2.2.7-4.2.7-4.4 0-7.2-2.5-7.2-6.3s3.1-6.6 7.8-6.6c1.6 0 2.9.3 3.7.6l-.6 1.7c-.6-.3-1.6-.6-3.1-.6-3.3 0-5.1 2.1-5.1 4.7 0 2.9 2.2 4.7 5 4.7 1.5 0 2.5-.3 3.2-.6l.5 1.7zM215.5 90.1c0-1.5 0-2.7-.1-3.9h2.3l.1 2.4h.1c.7-1.7 2.2-2.7 4-2.7.3 0 .5 0 .8.1v2.1c-.3-.1-.5-.1-.9-.1-1.9 0-3.2 1.2-3.5 2.9-.1.3-.1.7-.1 1.1v6.6h-2.6v-8.5zM228.3 82.8c0 .8-.6 1.4-1.7 1.4-.9 0-1.6-.6-1.6-1.4 0-.8.7-1.4 1.6-1.4 1.1 0 1.7.6 1.7 1.4zm-2.9 15.9V86.3h2.6v12.4h-2.6zM232.4 90.3c0-1.6-.1-2.9-.1-4.1h2.4l.1 2.1h.1c1.1-1.5 2.8-2.4 5.2-2.4 3.5 0 6.1 2.5 6.1 6.3 0 4.5-3.2 6.7-6.6 6.7-1.9 0-3.6-.7-4.5-2h-.1v6.8h-2.6V90.3zm2.6 3.3c0 .3.1.6.1.9.5 1.6 2.1 2.6 4 2.6 2.8 0 4.4-2 4.4-4.8 0-2.5-1.5-4.6-4.3-4.6-1.8 0-3.5 1.1-4 2.8-.1.3-.2.6-.2.9v2.2zM252.7 82.7v3.6h3.8V88h-3.8v6.7c0 1.5.5 2.4 2 2.4.7 0 1.2-.1 1.5-.2l.1 1.7c-.5.2-1.3.3-2.3.3-1.2 0-2.2-.3-2.8-1-.8-.7-1-1.8-1-3.2V88H248v-1.7h2.2v-3l2.5-.6zM260.7 92.9c.1 3.1 2.3 4.3 5 4.3 1.9 0 3-.3 4-.6l.4 1.6c-.9.4-2.5.8-4.8.8-4.5 0-7.1-2.5-7.1-6.3s2.6-6.7 6.8-6.7c4.7 0 6 3.6 6 5.9 0 .5-.1.8-.1 1.1h-10.2zm7.8-1.6c0-1.4-.7-3.7-3.7-3.7-2.7 0-3.8 2.1-4 3.7h7.7zM286.4 95.3c0 1.3 0 2.4.1 3.4h-2.3l-.2-2c-.7 1-2.2 2.3-4.8 2.3-2.3 0-5-1.1-5-5.4v-7.3h2.6v6.9c0 2.4.8 4 3.2 4 1.8 0 3-1.1 3.5-2.1.2-.3.2-.7.2-1.2v-7.6h2.6v9zM290.8 90.1c0-1.5 0-2.7-.1-3.9h2.3l.1 2.4h.1c.7-1.7 2.2-2.7 4-2.7.3 0 .5 0 .8.1v2.1c-.3-.1-.5-.1-.9-.1-1.9 0-3.2 1.2-3.5 2.9-.1.3-.1.7-.1 1.1v6.6h-2.6v-8.5zM300.3 96.4c.8.4 2.2.9 3.5.9 1.9 0 2.8-.8 2.8-1.9 0-1.1-.8-1.7-2.7-2.3-2.6-.8-3.8-2-3.8-3.5 0-2 1.9-3.6 5-3.6 1.5 0 2.8.4 3.6.8l-.7 1.6c-.6-.3-1.6-.7-3-.7-1.6 0-2.4.8-2.4 1.7 0 1 .9 1.5 2.8 2.1 2.5.8 3.8 1.9 3.8 3.8 0 2.2-2 3.7-5.4 3.7-1.6 0-3.1-.3-4.1-.8l.6-1.8zM318.9 90.3c0-1.6-.1-2.9-.1-4.1h2.4l.1 2.1h.1c1.1-1.5 2.8-2.4 5.2-2.4 3.5 0 6.2 2.5 6.2 6.3 0 4.5-3.2 6.7-6.6 6.7-1.9 0-3.6-.7-4.5-2h-.1v6.8H319V90.3zm2.6 3.3c0 .3.1.6.1.9.5 1.6 2.1 2.6 4 2.6 2.8 0 4.4-2 4.4-4.8 0-2.5-1.5-4.6-4.3-4.6-1.8 0-3.5 1.1-4 2.8-.1.3-.2.6-.2.9v2.2zM344 98.7l-.2-1.6h-.1c-.8 1-2.4 1.8-4.4 1.8-2.9 0-4.4-1.8-4.4-3.6 0-3 3.1-4.7 8.7-4.6v-.3c0-1-.3-2.9-3.3-2.9-1.3 0-2.8.4-3.8.9l-.6-1.5c1.2-.7 2.9-1.1 4.8-1.1 4.4 0 5.5 2.6 5.5 5.1v4.7c0 1.1.1 2.1.2 3H344zm-.4-6.3c-2.9-.1-6.2.4-6.2 2.8 0 1.5 1.1 2.2 2.5 2.2 1.9 0 3.1-1 3.5-2.1.1-.2.2-.5.2-.7v-2.2zM350.4 90.1c0-1.5 0-2.7-.1-3.9h2.3l.1 2.4h.1c.7-1.7 2.2-2.7 4-2.7.3 0 .5 0 .8.1v2.1c-.3-.1-.5-.1-.9-.1-1.9 0-3.2 1.2-3.5 2.9-.1.3-.1.7-.1 1.1v6.6h-2.6v-8.5zM364.1 82.7v3.6h3.8V88h-3.8v6.7c0 1.5.5 2.4 2 2.4.7 0 1.2-.1 1.5-.2l.1 1.7c-.5.2-1.3.3-2.3.3-1.2 0-2.2-.3-2.9-1-.8-.7-1-1.8-1-3.2V88h-2.2v-1.7h2.2v-3l2.6-.6zM372.1 92.9c.1 3.1 2.3 4.3 5 4.3 1.9 0 3-.3 4-.6l.5 1.6c-.9.4-2.5.8-4.8.8-4.5 0-7.1-2.5-7.1-6.3s2.6-6.7 6.8-6.7c4.7 0 6 3.6 6 5.9 0 .5-.1.8-.1 1.1h-10.3zm7.8-1.6c0-1.4-.7-3.7-3.7-3.7-2.7 0-3.8 2.1-4 3.7h7.7zM385.7 89.6c0-1.3 0-2.3-.1-3.4h2.3l.1 2.1h.1c.7-1.2 2.4-2.3 4.8-2.3 2 0 5.1 1 5.1 5.3v7.4h-2.6v-7.2c0-2-.9-3.7-3.4-3.7-1.7 0-3.1 1.1-3.5 2.3-.1.3-.2.7-.2 1.1v7.5h-2.6v-9.1zM410.4 98.7l-.2-1.6h-.1c-.8 1-2.4 1.8-4.4 1.8-2.9 0-4.4-1.8-4.4-3.6 0-3 3.1-4.7 8.7-4.6v-.3c0-1-.3-2.9-3.3-2.9-1.3 0-2.8.4-3.8.9l-.6-1.5c1.2-.7 2.9-1.1 4.8-1.1 4.4 0 5.5 2.6 5.5 5.1v4.7c0 1.1.1 2.1.2 3h-2.4zm-.4-6.3c-2.9-.1-6.2.4-6.2 2.8 0 1.5 1.1 2.2 2.5 2.2 1.9 0 3.1-1 3.5-2.1.1-.2.2-.5.2-.7v-2.2zM419.7 82.8c0 .8-.6 1.4-1.7 1.4-.9 0-1.6-.6-1.6-1.4 0-.8.7-1.4 1.6-1.4 1.1 0 1.7.6 1.7 1.4zm-2.9 15.9V86.3h2.6v12.4h-2.6zM423.8 90.1c0-1.5 0-2.7-.1-3.9h2.3l.1 2.4h.1c.7-1.7 2.2-2.7 4-2.7.3 0 .5 0 .8.1v2.1c-.3-.1-.5-.1-.9-.1-1.9 0-3.2 1.2-3.5 2.9-.1.3-.1.7-.1 1.1v6.6h-2.6v-8.5zM434.8 92.9c.1 3.1 2.3 4.3 5 4.3 1.9 0 3-.3 4-.6l.5 1.6c-.9.4-2.5.8-4.8.8-4.5 0-7.1-2.5-7.1-6.3s2.6-6.7 6.8-6.7c4.7 0 6 3.6 6 5.9 0 .5-.1.8-.1 1.1h-10.3zm7.7-1.6c0-1.4-.7-3.7-3.7-3.7-2.7 0-3.8 2.1-4 3.7h7.7zM448 96.4c.8.4 2.2.9 3.5.9 1.9 0 2.8-.8 2.8-1.9 0-1.1-.8-1.7-2.7-2.3-2.6-.8-3.8-2-3.8-3.5 0-2 1.9-3.6 5-3.6 1.5 0 2.8.4 3.6.8l-.7 1.6c-.6-.3-1.6-.7-3-.7-1.6 0-2.4.8-2.4 1.7 0 1 .9 1.5 2.8 2.1 2.5.8 3.8 1.9 3.8 3.8 0 2.2-2 3.7-5.4 3.7-1.6 0-3.1-.3-4.1-.8l.6-1.8z"/></g></svg>