<svg xmlns="http://www.w3.org/2000/svg" viewBox="0 220.522 480 38.955"><path fill="#003A57" d="M8.16 243.523h.183c1.244-1.354 6.587-6.808 7.647-8.05 1.025-1.207 1.83-2.122 1.83-2.743 0-.4-.145-.66-.51-.733-.332-.073-.478-.146-.478-.367 0-.255.184-.328.586-.328.77 0 2.78.11 3.77.11 1.133 0 3.147-.11 4.28-.11.365 0 .624.073.624.328 0 .258-.183.332-.548.332-.514 0-1.43.146-2.122.4-1.138.44-2.38 1.21-3.952 2.746-1.136 1.1-6.662 6.588-7.907 7.903 1.318 1.723 8.49 9.442 9.917 10.797 1.61 1.537 3.256 3.186 5.233 3.952 1.096.44 1.83.548 2.268.548.26 0 .477.072.477.294 0 .256-.182.367-.88.367h-3.18c-1.1 0-1.757 0-2.526-.077-1.976-.182-2.964-.987-4.536-2.38-1.61-1.423-8.82-9.878-9.588-10.938l-.402-.55H8.16v3.33c0 3.366 0 6.256.11 7.83.072 1.026.4 1.83 1.316 1.978.512.07 1.316.145 1.793.145.29 0 .475.11.475.294 0 .255-.294.366-.696.366-2.05 0-4.356-.11-5.27-.11-.843 0-3.148.11-4.61.11-.476 0-.732-.11-.732-.366 0-.183.146-.294.585-.294.55 0 .988-.073 1.317-.145.733-.148.916-.95 1.06-2.014.184-1.54.184-4.428.184-7.794v-6.44c0-5.563 0-6.586-.074-7.758-.07-1.245-.365-1.828-1.572-2.085-.294-.074-.916-.11-1.427-.11-.4-.002-.62-.076-.62-.334 0-.257.257-.33.805-.33 1.938 0 4.244.11 5.123.11.877 0 3.183-.11 4.426-.11.514 0 .77.073.77.33s-.22.33-.512.33c-.367 0-.586.036-1.025.11-.988.182-1.28.807-1.355 2.085-.072 1.17-.072 2.195-.072 7.76v1.608zM50.237 247.586c.183 0 .22-.11.183-.222l-3.295-9.038c-.035-.144-.074-.328-.182-.328-.11 0-.184.184-.22.328l-3.366 9.002c-.038.148 0 .26.146.26l6.734-.002zm-7.466 1.828c-.18 0-.256.073-.33.293l-1.976 5.233c-.365.917-.548 1.792-.548 2.23 0 .66.33 1.134 1.463 1.134h.547c.44 0 .55.074.55.296 0 .292-.22.366-.62.366-1.172 0-2.744-.11-3.88-.11-.403 0-2.415.11-4.318.11-.475 0-.695-.074-.695-.366 0-.22.144-.296.437-.296.33 0 .843-.035 1.137-.07 1.68-.22 2.376-1.464 3.107-3.293l9.185-22.98c.438-1.06.66-1.462 1.023-1.462.33 0 .55.327.917 1.168.878 2.014 6.73 16.943 9.073 22.505 1.39 3.295 2.454 3.808 3.222 3.99a8.15 8.15 0 0 0 1.537.144c.292 0 .475.038.475.296 0 .292-.33.366-1.684.366-1.316 0-3.988 0-6.917-.074-.66-.035-1.097-.035-1.097-.292 0-.22.146-.296.51-.33.258-.07.513-.403.33-.84l-2.926-7.76c-.07-.184-.182-.257-.367-.257h-8.16zM72.117 241.914c0-5.563 0-6.586-.072-7.76-.075-1.243-.368-1.827-1.574-2.083-.292-.073-.915-.11-1.427-.11-.404 0-.622-.072-.622-.33 0-.255.258-.328.804-.328 1.94 0 4.247.11 5.343.11.88 0 3.185-.11 4.503-.11.545 0 .804.073.804.328 0 .258-.22.33-.585.33-.405 0-.624.037-1.064.11-.988.183-1.28.806-1.354 2.085-.074 1.172-.074 2.196-.074 7.76v5.122c0 5.305 1.062 7.537 2.855 9 1.646 1.355 3.33 1.502 4.574 1.502 1.61 0 3.585-.513 5.05-1.978 2.012-2.012 2.12-5.307 2.12-9.075v-4.57c0-5.565 0-6.588-.072-7.76-.073-1.244-.367-1.828-1.575-2.084-.29-.074-.914-.11-1.316-.11-.403 0-.622-.073-.622-.33 0-.256.256-.33.77-.33 1.867 0 4.17.11 4.21.11.437 0 2.743-.11 4.17-.11.512 0 .768.074.768.33 0 .257-.218.33-.66.33-.4 0-.622.037-1.06.11-.987.182-1.28.805-1.354 2.084-.073 1.172-.073 2.195-.073 7.76v3.914c0 4.06-.403 8.38-3.477 11.014-2.598 2.23-5.233 2.634-7.612 2.634-1.94 0-5.452-.108-8.12-2.525-1.87-1.683-3.26-4.392-3.26-9.696v-5.343zM117.524 248.354c0 3.512 0 6.258.18 7.793.11 1.064.33 1.867 1.43 2.015.51.07 1.316.144 1.83.144.476 0 .62.11.62.295 0 .257-.254.368-.805.368-2.306 0-4.61-.113-5.56-.113-.954 0-3.26.113-4.65.113-.51 0-.77-.076-.77-.367 0-.183.148-.294.552-.294.55 0 .987-.072 1.32-.144.728-.15.91-.95 1.058-2.015.184-1.536.184-4.28.184-7.793v-6.44c0-5.563 0-6.585-.073-7.758-.074-1.245-.365-1.828-1.573-2.085-.293-.073-.915-.108-1.428-.108-.366 0-.623-.073-.623-.295 0-.292.293-.363.843-.363 1.9 0 4.206.108 5.266.108 1.39 0 8.82 0 9.663-.037.694-.035 1.13-.035 1.498-.146.22-.073.404-.22.586-.22.147 0 .258.147.258.33 0 .255-.183.694-.294 1.646-.035.366-.11 2.525-.183 2.962-.037.296-.108.514-.367.514-.255 0-.326-.182-.366-.585 0-.294 0-.88-.22-1.39-.254-.515-1.022-1.063-2.414-1.1l-5.634-.11c-.22 0-.33.11-.33.512v9.148c0 .22.038.33.255.33l4.684-.037c.623 0 1.134 0 1.645-.037.697-.034 1.21-.183 1.575-.657.183-.22.254-.365.477-.365.144 0 .218.11.218.33 0 .22-.183 1.136-.293 2.27a50.267 50.267 0 0 0-.147 2.67c0 .33 0 .694-.365.694-.22 0-.293-.256-.293-.51 0-.26-.073-.695-.22-1.136-.182-.513-.73-1.17-1.868-1.317-.912-.106-4.792-.106-5.414-.106-.183 0-.254.07-.254.326v2.964zM145.62 231.447c.11-.622.328-.95.622-.95.292 0 .51.182.987 1.133l9.99 20.64 9.953-20.896c.256-.585.474-.877.804-.877.33 0 .55.364.658 1.132l3.332 22.615c.33 2.305.695 3.366 1.792 3.693 1.062.33 1.792.367 2.27.367.328 0 .585.036.585.26 0 .29-.438.4-.952.4-.914 0-5.963-.11-7.428-.223-.84-.07-1.06-.18-1.06-.4 0-.182.146-.293.402-.404.22-.072.328-.545.184-1.573l-2.196-16.1h-.146l-7.98 16.613c-.84 1.72-1.022 2.05-1.353 2.05s-.695-.73-1.28-1.83c-.88-1.682-3.77-7.28-4.21-8.307-.33-.767-2.523-5.38-3.804-8.124h-.147l-1.902 14.566c-.07.658-.108 1.132-.108 1.718 0 .696.474 1.026 1.097 1.17a7.12 7.12 0 0 0 1.536.185c.293 0 .55.072.55.26 0 .324-.33.4-.878.4-1.538 0-3.185-.11-3.843-.11-.696 0-2.452.11-3.625.11-.363 0-.658-.076-.658-.4 0-.187.22-.26.586-.26.293 0 .55 0 1.1-.108 1.023-.22 1.315-1.647 1.5-2.894l3.622-23.856zM199.595 247.586c.182 0 .218-.11.182-.222l-3.294-9.038c-.036-.144-.073-.328-.183-.328s-.184.184-.22.328l-3.366 9.002c-.035.148 0 .26.147.26l6.735-.002zm-7.466 1.828c-.184 0-.258.073-.332.293l-1.976 5.233c-.366.917-.548 1.792-.548 2.23 0 .66.33 1.134 1.464 1.134h.55c.437 0 .546.074.546.296 0 .292-.22.366-.62.366-1.172 0-2.745-.11-3.88-.11-.403 0-2.415.11-4.32.11-.474 0-.692-.074-.692-.366 0-.22.146-.296.438-.296.33 0 .84-.035 1.135-.07 1.68-.22 2.377-1.464 3.11-3.293l9.183-22.978c.44-1.062.66-1.463 1.026-1.463.327 0 .548.326.913 1.168.88 2.014 6.733 16.942 9.076 22.505 1.392 3.294 2.45 3.806 3.22 3.99.55.108 1.098.144 1.537.144.29 0 .475.037.475.295 0 .292-.33.365-1.683.365-1.317 0-3.99 0-6.915-.073-.66-.035-1.098-.035-1.098-.292 0-.22.145-.295.512-.33.256-.07.51-.402.327-.84l-2.928-7.76c-.073-.182-.184-.256-.366-.256h-8.16v-.002zM226.927 253.988c.076 2.855.548 3.81 1.282 4.062.62.218 1.314.256 1.9.256.404 0 .624.072.624.294 0 .29-.33.366-.843.366-2.378 0-3.84-.11-4.536-.11-.328 0-2.05.11-3.952.11-.476 0-.805-.037-.805-.366 0-.22.22-.294.585-.294.475 0 1.136-.037 1.647-.184.95-.29 1.096-1.353 1.133-4.535l.33-21.664c0-.733.11-1.245.476-1.245.4 0 .73.477 1.352 1.135.44.477 6.003 6.44 11.344 11.746 2.49 2.49 7.43 7.757 8.05 8.345h.185l-.365-16.432c-.037-2.233-.366-2.928-1.243-3.294-.55-.22-1.43-.22-1.94-.22-.44 0-.586-.11-.586-.33 0-.292.403-.328.952-.328 1.9 0 3.66.11 4.427.11.402 0 1.793-.11 3.59-.11.473 0 .838.036.838.328 0 .22-.22.33-.658.33-.367 0-.658 0-1.096.11-1.026.292-1.32 1.06-1.356 3.11l-.403 23.088c0 .806-.145 1.137-.474 1.137-.404 0-.842-.402-1.245-.806-2.305-2.197-6.988-6.99-10.795-10.76-3.987-3.95-8.05-8.527-8.707-9.22h-.11l.4 15.368zM325.452 245.463c-.77-.55-1.61-.805-3.038-.88-.657-.034-1.024-.034-1.573-.034-.146 0-.22.073-.22.255v8.674c0 2.414.11 3.034 1.28 3.513.99.402 1.833.44 2.673.44 1.646 0 4.427-.88 4.427-4.686 0-2.272-.77-5.345-3.548-7.284m-4.83-2.928c0 .293.108.367.258.402.324.072.877.11 1.72.11 1.206 0 2.01-.144 2.632-.694.95-.77 1.5-2.086 1.5-3.878 0-2.45-1.427-5.672-4.573-5.672-.512 0-.84 0-1.207.075-.26.073-.33.22-.33.622v9.035zm-4.39-.62c0-5.564 0-6.587-.07-7.76-.078-1.244-.37-1.828-1.574-2.084-.297-.073-.92-.11-1.43-.11-.404 0-.627-.072-.627-.33 0-.255.26-.328.808-.328 1.94 0 4.247.11 4.98.11 1.795 0 3.22-.11 4.462-.11 6.625 0 7.793 3.55 7.793 5.49 0 3-1.718 4.792-3.73 6.4 2.996 1.026 6.66 3.624 6.66 7.907 0 3.91-3.038 7.974-9.77 7.974-.88 0-4.21-.217-5.31-.217-.84 0-3.145.11-4.607.11-.48 0-.73-.11-.73-.367 0-.18.142-.294.583-.294.55 0 .988-.07 1.317-.145.73-.147.914-.95 1.06-2.012.186-1.538.186-4.427.186-7.794v-6.44zM351.537 244.805c0 .4.072.548.33.658.764.256 1.862.367 2.782.367 1.458 0 1.934-.146 2.592-.625 1.1-.805 2.162-2.486 2.162-5.487 0-5.197-3.44-6.698-5.604-6.698-.912 0-1.57.04-1.936.146-.256.074-.328.22-.328.515v11.125zm-4.318-2.89c0-5.564 0-6.587-.074-7.76-.078-1.244-.366-1.828-1.577-2.084-.29-.073-.916-.11-1.425-.11-.4 0-.624-.072-.624-.33 0-.255.26-.328.807-.328 1.938 0 4.243.11 5.013.11 1.243 0 4.024-.11 5.158-.11 2.307 0 4.758.22 6.732 1.574 1.025.694 2.49 2.562 2.49 5.01 0 2.71-1.133 5.2-4.832 8.2 3.26 4.097 5.782 7.353 7.944 9.622 2.05 2.123 3.55 2.38 4.095 2.49.403.07.733.105 1.03.105.29 0 .435.114.435.295 0 .293-.258.367-.693.367h-3.48c-2.048 0-2.96-.184-3.915-.698-1.575-.838-2.96-2.56-5.014-5.376-1.46-2.013-3.145-4.5-3.62-5.05-.18-.217-.403-.255-.658-.255l-3.186-.073c-.182 0-.29.073-.29.293v.512c0 3.403 0 6.293.18 7.83.11 1.064.333 1.867 1.43 2.014.548.073 1.352.146 1.792.146.294 0 .44.113.44.294 0 .258-.256.366-.73.366-2.126 0-4.834-.11-5.38-.11-.7 0-3.004.11-4.465.11-.478 0-.73-.11-.73-.366 0-.18.143-.294.58-.294.553 0 .99-.07 1.323-.145.727-.147.912-.95 1.057-2.012.186-1.538.186-4.427.186-7.794v-6.44zM402.212 245.83c0-8.2-4.72-13.284-10.717-13.284-4.21 0-9.004 2.342-9.004 11.453 0 7.61 4.207 13.647 11.233 13.647 2.563 0 8.49-1.243 8.49-11.817m-24.77-.697c0-6.257 4.13-14.344 15.108-14.344 9.11 0 14.786 5.305 14.786 13.687 0 8.377-5.855 15-15.15 15-10.5 0-14.744-7.867-14.744-14.344M430.858 247.586c.18 0 .215-.11.18-.222l-3.292-9.038c-.036-.144-.07-.328-.183-.328-.11 0-.182.184-.22.328l-3.368 9.002c-.035.148 0 .26.15.26l6.733-.002zm-7.463 1.828c-.188 0-.26.073-.332.293l-1.977 5.233c-.366.917-.544 1.792-.544 2.23 0 .66.323 1.134 1.46 1.134h.55c.44 0 .547.074.547.296 0 .292-.216.366-.62.366-1.17 0-2.744-.11-3.88-.11-.402 0-2.417.11-4.317.11-.48 0-.695-.074-.695-.366 0-.22.145-.296.438-.296.33 0 .84-.035 1.135-.07 1.68-.22 2.38-1.464 3.112-3.293l9.182-22.978c.44-1.062.66-1.463 1.025-1.463.33 0 .546.326.913 1.168.878 2.014 6.733 16.942 9.075 22.505 1.392 3.294 2.454 3.806 3.22 3.99a8.08 8.08 0 0 0 1.536.144c.293 0 .48.037.48.295 0 .292-.33.365-1.687.365-1.314 0-3.988 0-6.915-.073-.66-.035-1.096-.035-1.096-.292 0-.22.143-.295.512-.33.257-.07.51-.402.327-.84l-2.925-7.76c-.077-.182-.186-.256-.366-.256h-8.16v-.002zM458.34 245.94c0 3.878.033 6.693.07 7.39.033.916.107 2.38.4 2.78.476.696 1.908 1.466 4.796 1.466 3.733 0 6.222-.734 8.416-2.636 2.344-2.01 3.075-5.342 3.075-9.11 0-4.65-1.94-7.648-3.51-9.15-3.37-3.217-7.545-3.66-10.396-3.66-.732 0-2.086.112-2.38.26-.328.144-.438.328-.438.73-.034 1.244-.034 4.428-.034 7.32v4.61zm-4.578-4.026c0-5.563 0-6.586-.073-7.76-.07-1.243-.364-1.827-1.574-2.083-.293-.073-.913-.11-1.43-.11-.4 0-.62-.072-.62-.33 0-.255.26-.328.807-.328 1.94 0 4.245.11 5.268.11 1.137 0 3.443-.11 5.64-.11 4.568 0 10.684 0 14.67 4.17 1.832 1.905 3.552 4.942 3.552 9.294 0 4.612-1.94 8.125-3.988 10.21-1.682 1.72-5.487 4.318-12.258 4.318-2.67 0-5.968-.44-7.795-.44-.84 0-3.145.112-4.61.112-.476 0-.732-.11-.732-.367 0-.182.146-.296.587-.296.547 0 .983-.07 1.316-.144.73-.147.913-.95 1.064-2.013.18-1.538.18-4.427.18-7.793v-6.44h-.002zM299.374 256.662v2.253c-7.43-.935-28.304-.933-35.28.062v-2.312.145-2.314c7.045 1.006 27.797 1.006 35.28.06v2.255-.148zM272.287 245.033c1.727-3.45 7.682-14.033 8.645-15.374.544-.763.844-1.038 1.56 0 .277.404 8.578 14.596 8.835 15.437.264.844.58 1.172-.45 1.363-2.55.472-14.73.33-18.134-.064-.844-.097-.845-.584-.456-1.363m9.757 5.508a604.25 604.25 0 0 1 17.554.234c-.85-1.98-5.385-9.034-9.407-15.896-4.016-6.86-7.506-13.526-8.322-14.355h-.094c-.812.83-4.307 7.496-8.322 14.355-4.018 6.862-8.555 13.917-9.406 15.896 6.213-.17 11.87-.24 17.557-.233h.44z"/></svg>