<svg xmlns="http://www.w3.org/2000/svg" width="476.223" height="476.223" viewBox="0 0 476.223 476.223"><path fill-rule="evenodd" clip-rule="evenodd" d="M280.682 6.73C174.528 6.73 88.488 92.21 88.488 197.67c0 42.302 14.007 81.263 37.446 112.927L9.01 425.957c-8.966 8.907-8.966 23.348 0 32.252 8.946 8.905 23.48 8.905 32.44 0l115.793-114.264c33.396 27.86 76.424 44.666 123.44 44.666 106.123 0 192.18-85.482 192.18-190.942 0-105.458-86.057-190.94-192.18-190.94zm-.432 339.783c-82.5 0-149.383-66.466-149.383-148.424 0-81.99 66.883-148.425 149.383-148.425 82.5 0 149.384 66.435 149.384 148.424 0 81.957-66.885 148.423-149.384 148.423z"/></svg>