<svg xmlns="http://www.w3.org/2000/svg" width="476.223" height="476.223" viewBox="0 0 476.223 476.223"><path fill-rule="evenodd" clip-rule="evenodd" d="M467.66 428.482l-117.144-115.48c23.47-31.698 37.344-70.835 37.344-113.194C387.86 94.146 301.607 8.5 195.23 8.5 88.845 8.5 2.6 94.146 2.6 199.808c0 105.65 86.246 191.296 192.63 191.296 47.15 0 90.34-16.836 123.825-44.773l116.088 114.452c8.972 8.912 23.546 8.912 32.518 0 8.985-8.924 8.985-23.376 0-32.3zm-271.848-79.63c-82.71 0-149.758-66.55-149.758-148.656S113.1 51.53 195.812 51.53s149.76 66.56 149.76 148.666S278.52 348.85 195.81 348.85z"/></svg>